<?xml version="1.0" encoding="UTF-8" standalone="no"?>
<!DOCTYPE svg PUBLIC "-//W3C//DTD SVG 1.1//EN" "http://www.w3.org/Graphics/SVG/1.1/DTD/svg11.dtd">
<svg version="1.1" xmlns="http://www.w3.org/2000/svg" xmlns:xlink="http://www.w3.org/1999/xlink" preserveAspectRatio="xMidYMid meet" viewBox="0 0 640 640" width="640" height="640"><defs><path d="M485.36 196.74L316.07 293.47L146.79 196.73L316.07 100L485.36 196.73L485.36 196.74Z" id="eRBdMESmw"></path><path d="M485.36 196.73L485.36 390.2L316.07 486.94L316.07 293.47L316.07 293.47L485.36 196.73Z" id="a9VGnnwWeM"></path><path d="M146.79 390.2L146.79 196.73L316.07 293.47L316.07 486.94L316.07 486.94L146.79 390.2Z" id="e1fVAkxFEd"></path><path d="M316.07 438.57L203.21 374.08L203.21 277.35L316.07 341.84L316.07 438.57Z" id="c2zbGzvLtC"></path><path d="M428.93 277.35L316.07 341.84L316.07 438.57L428.93 374.08L428.93 277.35Z" id="b2HxoEp85"></path><path d="M203.21 374.08L203.21 277.35L287.86 325.71L203.21 374.08Z" id="ba64NAIax"></path><path d="M344.29 325.71L428.93 277.35L428.93 374.08L344.29 325.71Z" id="b16E8MXmBT"></path></defs><g><g><g><use xlink:href="#eRBdMESmw" opacity="1" fill="#ffb930" fill-opacity="1"></use></g><g><use xlink:href="#a9VGnnwWeM" opacity="1" fill="#d28d1a" fill-opacity="1"></use></g><g><use xlink:href="#e1fVAkxFEd" opacity="1" fill="#a76800" fill-opacity="1"></use></g><g><use xlink:href="#c2zbGzvLtC" opacity="1" fill="#815100" fill-opacity="1"></use><g><use xlink:href="#c2zbGzvLtC" opacity="1" fill-opacity="0" stroke="#000000" stroke-width="0" stroke-opacity="1"></use></g></g><g><use xlink:href="#b2HxoEp85" opacity="1" fill="#815100" fill-opacity="1"></use><g><use xlink:href="#b2HxoEp85" opacity="1" fill-opacity="0" stroke="#000000" stroke-width="0" stroke-opacity="1"></use></g></g><g><use xlink:href="#ba64NAIax" opacity="1" fill="#714800" fill-opacity="1"></use><g><use xlink:href="#ba64NAIax" opacity="1" fill-opacity="0" stroke="#000000" stroke-width="0" stroke-opacity="1"></use></g></g><g><use xlink:href="#b16E8MXmBT" opacity="1" fill="#503301" fill-opacity="1"></use><g><use xlink:href="#b16E8MXmBT" opacity="1" fill-opacity="0" stroke="#000000" stroke-width="0" stroke-opacity="1"></use></g></g></g></g></svg>